<svg xmlns="http://www.w3.org/2000/svg" width="960" height="300" viewBox="0 0 960 300" role="img" aria-label="JevTrace — compiler-guided context for TypeScript/JavaScript. 1. Task: describe the change in plain language. 2. Trace: the TypeScript compiler follows callers, types, calls and tests while Jev drops irrelevant code. 3. Context: the kept code is returned within the token budget.">
<style>text{font-family:Inter,system-ui,-apple-system,"Segoe UI",sans-serif}.mono{font-family:"JetBrains Mono",ui-monospace,SFMono-Regular,Menlo,Consolas,monospace}</style>
<rect x="0.5" y="0.5" width="959" height="299" rx="18" fill="#1a1a19" stroke="rgba(255,255,255,0.10)"/>
<text x="42" y="150" font-size="70" font-weight="800" letter-spacing="-2" fill="#ffffff">JevTrace</text>
<text x="44" y="188" font-size="19" font-weight="600" fill="#c3c2b7">Compiler-guided context</text>
<text x="44" y="214" font-size="19" font-weight="600" fill="#c3c2b7">for <tspan fill="#3987e5">TypeScript/JavaScript</tspan>.</text>
<circle cx="401" cy="62" r="9" fill="#3987e5"/><text x="401" y="66.5" font-size="12" font-weight="800" fill="#ffffff" text-anchor="middle">1</text><text x="416" y="67" font-size="15" font-weight="700" fill="#ffffff">Task</text>
<rect x="392" y="96" width="118" height="128" rx="10" fill="#232322" stroke="rgba(255,255,255,0.10)"/>
<text x="406" y="120" font-size="10" font-weight="800" letter-spacing="1.5" fill="#3987e5">TASK</text>
<text class="mono" x="406" y="150" font-size="14" font-weight="700" fill="#ffffff">“Fix refresh</text>
<text class="mono" x="406" y="170" font-size="14" font-weight="700" fill="#ffffff">token</text>
<text class="mono" x="406" y="190" font-size="14" font-weight="700" fill="#ffffff">validation”</text>
<text x="392" y="270" font-size="13" font-weight="500" fill="#898781">plain language</text>
<path d="M514 160H546" stroke="#5b5a55" stroke-width="2"/><path d="M541 155l6 5-6 5" fill="none" stroke="#5b5a55" stroke-width="2" stroke-linecap="round" stroke-linejoin="round"/>
<circle cx="557" cy="62" r="9" fill="#3987e5"/><text x="557" y="66.5" font-size="12" font-weight="800" fill="#ffffff" text-anchor="middle">2</text><text x="572" y="67" font-size="15" font-weight="700" fill="#ffffff">Trace</text>
<path d="M662 160L590 104" stroke="#3987e5" stroke-width="1.5"/>
<path d="M662 160L750 104" stroke="#3987e5" stroke-width="1.5"/>
<path d="M662 160L590 216" stroke="#3987e5" stroke-width="1.5"/>
<path d="M662 160L750 216" stroke="#3987e5" stroke-width="1.5"/>
<path d="M662 160L752 160" stroke="#5b5a55" stroke-width="1.5" stroke-dasharray="3 4"/>
<rect x="619.4" y="144" width="85.2" height="32" rx="16" fill="#3987e5"/>
<text class="mono" x="662" y="165" font-size="13" font-weight="700" fill="#ffffff" text-anchor="middle">verify()</text>
<rect x="547.7" y="91" width="84.60000000000001" height="26" rx="13" fill="#232322" stroke="#3987e5" stroke-width="1.5"/>
<text class="mono" x="590" y="108.5" font-size="12" font-weight="700" fill="#ffffff" text-anchor="middle">refresh()</text>
<text x="590" y="85" font-size="11" font-weight="600" fill="#898781" text-anchor="middle">caller</text>
<rect x="722.5" y="91" width="55" height="26" rx="13" fill="#232322" stroke="#3987e5" stroke-width="1.5"/>
<text class="mono" x="750" y="108.5" font-size="12" font-weight="700" fill="#ffffff" text-anchor="middle">Token</text>
<text x="750" y="85" font-size="11" font-weight="600" fill="#898781" text-anchor="middle">type</text>
<rect x="547.7" y="203" width="84.60000000000001" height="26" rx="13" fill="#232322" stroke="#3987e5" stroke-width="1.5"/>
<text class="mono" x="590" y="220.5" font-size="12" font-weight="700" fill="#ffffff" text-anchor="middle">auth.test</text>
<text x="590" y="244" font-size="11" font-weight="600" fill="#898781" text-anchor="middle">test</text>
<rect x="718.8" y="203" width="62.400000000000006" height="26" rx="13" fill="#232322" stroke="#3987e5" stroke-width="1.5"/>
<text class="mono" x="750" y="220.5" font-size="12" font-weight="700" fill="#ffffff" text-anchor="middle">sign()</text>
<text x="750" y="244" font-size="11" font-weight="600" fill="#898781" text-anchor="middle">calls</text>
<rect x="724.5" y="147" width="55" height="26" rx="13" fill="#1a1a19" stroke="#5b5a55" stroke-width="1.5" stroke-dasharray="3 3"/>
<text class="mono" x="752" y="164.5" font-size="12" font-weight="700" fill="#898781" text-anchor="middle" text-decoration="line-through">log()</text>
<text x="548" y="270" font-size="13" font-weight="500" fill="#898781">compiler follows links · Jev drops noise</text>
<path d="M790 160H824" stroke="#5b5a55" stroke-width="2"/><path d="M819 155l6 5-6 5" fill="none" stroke="#5b5a55" stroke-width="2" stroke-linecap="round" stroke-linejoin="round"/>
<circle cx="835" cy="62" r="9" fill="#3987e5"/><text x="835" y="66.5" font-size="12" font-weight="800" fill="#ffffff" text-anchor="middle">3</text><text x="850" y="67" font-size="15" font-weight="700" fill="#ffffff">Context</text>
<rect x="826" y="96" width="104" height="128" rx="10" fill="#232322" stroke="rgba(255,255,255,0.10)"/>
<rect x="838" y="112" width="46" height="6" rx="3" fill="#3987e5"/>
<rect x="846" y="123" width="64" height="5" rx="2.5" fill="#5b5a55"/>
<rect x="838" y="138" width="34" height="6" rx="3" fill="#3987e5"/>
<rect x="846" y="149" width="56" height="5" rx="2.5" fill="#5b5a55"/>
<rect x="838" y="164" width="52" height="6" rx="3" fill="#3987e5"/>
<rect x="846" y="175" width="44" height="5" rx="2.5" fill="#5b5a55"/>
<rect x="838" y="194" width="80" height="6" rx="3" fill="#2c2c2a"/>
<rect x="838" y="194" width="33.6" height="6" rx="3" fill="#3987e5"/>
<text class="mono" x="838" y="214" font-size="10.5" font-weight="700" fill="#c3c2b7">3.4k / 8k tok</text>
<text x="826" y="270" font-size="13" font-weight="500" fill="#898781">within budget</text>
</svg>
